HIERARCHY
ROOT hip
{
  OFFSET 0 0 0
  CHANNELS 6 Xposition Yposition Zposition Zrotation Yrotation Xrotation
  JOINT abdomen
  {
    OFFSET 0 20.6881 -0.73152
    CHANNELS 3 Zrotation Xrotation Yrotation
    JOINT chest
    {
      OFFSET 0 11.7043 -0.48768
      CHANNELS 3 Zrotation Xrotation Yrotation
      JOINT neck
      {
        OFFSET 0 22.1894 -2.19456
        CHANNELS 3 Zrotation Xrotation Yrotation
        JOINT head
        {
          OFFSET -0.24384 7.07133 1.2192
          CHANNELS 3 Zrotation Xrotation Yrotation
          JOINT leftEye
          {
            OFFSET 4.14528 8.04674 8.04672
            CHANNELS 3 Zrotation Xrotation Yrotation
            End Site
            {
              OFFSET 1 0 0
            }
          }
          JOINT rightEye
          {
            OFFSET -3.6576 8.04674 8.04672
            CHANNELS 3 Zrotation Xrotation Yrotation
            End Site
            {
              OFFSET 1 0 0
            }
          }
        }
      }
      JOINT rCollar
      {
        OFFSET -2.68224 19.2634 -4.8768
        CHANNELS 3 Zrotation Xrotation Yrotation
        JOINT rShldr
        {
          OFFSET -8.77824 -1.95073 1.46304
          CHANNELS 3 Zrotation Xrotation Yrotation
          JOINT rForeArm
          {
            OFFSET -28.1742 -1.7115 0.48768
            CHANNELS 3 Zrotation Xrotation Yrotation
            JOINT rHand
            {
              OFFSET -22.5879 0.773209 7.07136
              CHANNELS 3 Zrotation Xrotation Yrotation
              JOINT rThumb1
              {
                OFFSET -1.2192 -0.487915 3.41376
                CHANNELS 3 Zrotation Xrotation Yrotation
                JOINT rThumb2
                {
                  OFFSET -3.37035 -0.52449 3.41376
                  CHANNELS 3 Zrotation Xrotation Yrotation
                  End Site
                  {
                    OFFSET -1.78271 -1.18214 1.43049
                  }
                }
              }
              JOINT rIndex1
              {
                OFFSET -7.75947 0.938293 5.60832
                CHANNELS 3 Zrotation Xrotation Yrotation
                JOINT rIndex2
                {
                  OFFSET -2.54057 -0.884171 1.56538
                  CHANNELS 3 Zrotation Xrotation Yrotation
                  End Site
                  {
                    OFFSET -1.62519 -0.234802 1.16502
                  }
                }
              }
              JOINT rMid1
              {
                OFFSET -8.24714 1.18213 3.41376
                CHANNELS 3 Zrotation Xrotation Yrotation
                JOINT rMid2
                {
                  OFFSET -3.10165 -0.590103 1.0647
                  CHANNELS 3 Zrotation Xrotation Yrotation
                  End Site
                  {
                    OFFSET -2.48547 -0.328903 0.83742
                  }
                }
              }
              JOINT rRing1
              {
                OFFSET -8.82822 0.546677 1.51678
                CHANNELS 3 Zrotation Xrotation Yrotation
                JOINT rRing2
                {
                  OFFSET -2.60934 -0.819778 -0.0198488
                  CHANNELS 3 Zrotation Xrotation Yrotation
                  End Site
                  {
                    OFFSET -2.33842 -0.294052 0.168128
                  }
                }
              }
              JOINT rPinky1
              {
                OFFSET -8.27202 -0.0477905 -0.4584
                CHANNELS 3 Zrotation Xrotation Yrotation
                JOINT rPinky2
                {
                  OFFSET -1.82734 -0.647385 -0.700984
                  CHANNELS 3 Zrotation Xrotation Yrotation
                  End Site
                  {
                    OFFSET -1.69225 -0.51767 -0.607171
                  }
                }
              }
            }
          }
        }
      }
      JOINT lCollar
      {
        OFFSET 2.68224 19.2634 -4.8768
        CHANNELS 3 Zrotation Xrotation Yrotation
        JOINT lShldr
        {
          OFFSET 8.77824 -1.95073 1.46304
          CHANNELS 3 Zrotation Xrotation Yrotation
          JOINT lForeArm
          {
            OFFSET 28.1742 -1.7115 0.48768
            CHANNELS 3 Zrotation Xrotation Yrotation
            JOINT lHand
            {
              OFFSET 22.5879 0.773209 7.07136
              CHANNELS 3 Zrotation Xrotation Yrotation
              JOINT lThumb1
              {
                OFFSET 1.2192 -0.487915 3.41376
                CHANNELS 3 Zrotation Xrotation Yrotation
                JOINT lThumb2
                {
                  OFFSET 3.37035 -0.52449 3.41376
                  CHANNELS 3 Zrotation Xrotation Yrotation
                  End Site
                  {
                    OFFSET 1.78271 -1.18214 1.43049
                  }
                }
              }
              JOINT lIndex1
              {
                OFFSET 7.75947 0.938293 5.60832
                CHANNELS 3 Zrotation Xrotation Yrotation
                JOINT lIndex2
                {
                  OFFSET 2.54057 -0.884171 1.56538
                  CHANNELS 3 Zrotation Xrotation Yrotation
                  End Site
                  {
                    OFFSET 1.62519 -0.234802 1.16502
                  }
                }
              }
              JOINT lMid1
              {
                OFFSET 8.24714 1.18213 3.41376
                CHANNELS 3 Zrotation Xrotation Yrotation
                JOINT lMid2
                {
                  OFFSET 3.10165 -0.590103 1.0647
                  CHANNELS 3 Zrotation Xrotation Yrotation
                  End Site
                  {
                    OFFSET 2.48547 -0.328903 0.83742
                  }
                }
              }
              JOINT lRing1
              {
                OFFSET 8.82822 0.546677 1.51678
                CHANNELS 3 Zrotation Xrotation Yrotation
                JOINT lRing2
                {
                  OFFSET 2.60934 -0.819778 -0.0198488
                  CHANNELS 3 Zrotation Xrotation Yrotation
                  End Site
                  {
                    OFFSET 2.33842 -0.294052 0.168128
                  }
                }
              }
              JOINT lPinky1
              {
                OFFSET 8.27202 -0.0477905 -0.4584
                CHANNELS 3 Zrotation Xrotation Yrotation
                JOINT lPinky2
                {
                  OFFSET 1.82734 -0.647385 -0.700984
                  CHANNELS 3 Zrotation Xrotation Yrotation
                  End Site
                  {
                    OFFSET 1.69225 -0.51767 -0.607171
                  }
                }
              }
            }
          }
        }
      }
    }
  }
  JOINT rButtock
  {
    OFFSET -8.77824 4.35084 1.2192
    CHANNELS 3 Zrotation Xrotation Yrotation
    JOINT rThigh
    {
      OFFSET 0 -1.70687 -2.19456
      CHANNELS 3 Zrotation Xrotation Yrotation
      JOINT rShin
      {
        OFFSET 0 -36.8199 0.73152
        CHANNELS 3 Zrotation Xrotation Yrotation
        JOINT rFoot
        {
          OFFSET 0.73152 -45.1104 -5.12064
          CHANNELS 3 Zrotation Xrotation Yrotation
          End Site
          {
            OFFSET -1.1221 -3.69964 12.103
          }
        }
      }
    }
  }
  JOINT lButtock
  {
    OFFSET 8.77824 4.35084 1.2192
    CHANNELS 3 Zrotation Xrotation Yrotation
    JOINT lThigh
    {
      OFFSET 0 -1.70687 -2.19456
      CHANNELS 3 Zrotation Xrotation Yrotation
      JOINT lShin
      {
        OFFSET 0 -36.8199 0.73152
        CHANNELS 3 Zrotation Xrotation Yrotation
        JOINT lFoot
        {
          OFFSET -0.73152 -45.1104 -5.12064
          CHANNELS 3 Zrotation Xrotation Yrotation
          End Site
          {
            OFFSET 1.1221 -3.69964 12.103
          }
        }
      }
    }
  }
}
MOTION
Frames:	8
Frame Time:	0.00833333
-111.244 85.0966 -11.7428 0.0 0.0 0.0 0.283893 -0.00291391 0.00816072 0.078459 -0.00473298 0.0135944 -2.99365e-15 1.59028e-15 -3.72721e-17 -8.95929e-15 1.59028e-14 -1.16475e-16 -0.0 0.0 0.0 -0.0 0.0 0.0 -1.44254e-15 4.27076e-18 9.93923e-17 -2.94619e-14 2.42269e-16 5.96354e-16 -5.34085e-13 1.67774e-13 1.59028e-14 -6.14887e-12 -1.33608e-13 -9.54166e-14 -1.45033e-11 7.06151e-14 -1.78111e-13 -2.50648e-11 1.145e-13 -3.1249e-13 -1.45013e-11 6.67917e-14 -1.87653e-13 7.73091 5.47488 0.417314 -1.45057e-11 6.97734e-14 -1.74931e-13 2.90554 0.965183 0.102902 -1.45054e-11 7.02704e-14 -1.78906e-13 10.2786 0.731801 0.0259123 -1.45135e-11 7.59357e-14 -1.7175e-13 2.22167 -0.733487 -0.20892 -1.63872e-15 3.68839e-18 -9.93923e-17 -3.25776e-14 2.29845e-16 -1.39149e-15 -5.39005e-13 -1.53462e-13 -1.90833e-14 -6.1483e-12 1.89939e-13 -6.36111e-14 -1.45038e-11 7.27228e-14 -1.78111e-13 -2.50361e-11 1.24042e-13 -3.10899e-13 -1.45069e-11 7.03698e-14 -1.74931e-13 -7.73091 5.47488 -0.417314 -1.4501e-11 7.21588e-14 -1.78111e-13 -2.90554 0.965183 -0.102902 -1.45071e-11 7.22582e-14 -1.79701e-13 -10.2786 0.731801 -0.0259123 -1.44956e-11 7.91163e-14 -1.84472e-13 -2.22167 -0.733487 0.20892 -2.03217e-16 0.0 -3.88251e-19 0.668916 -3.85853 -0.0572481 -0.00341786 1.43794 -0.0274402 -0.455258 2.42105 0.10033 2.03217e-16 0.0 3.88251e-19 -0.234822 -2.72419 0.0299387 0.00662645 -0.616661 0.0579727 0.449436 3.34127 -0.117941
-105.508 83.3973 -17.3809 -136.659 84.0997 -130.648 0.645466 0.597567 0.589157 0.481286 -1.12514 0.207791 0.510723 -1.19277 0.549957 0.577043 1.32873 1.0193 -0.0 0.0 0.0 -0.0 0.0 0.0 -2.69063e-14 -4.18206e-13 -5.55005e-15 20.4691 10.0868 -0.262275 -4.83539 -2.33518 7.39665 0.00083709 -0.739732 -0.103939 5.54306e-10 1.61309e-10 -2.9614e-10 9.5797e-10 2.78923e-10 -5.12413e-10 5.54308e-10 1.61305e-10 -2.96148e-10 7.73091 5.47488 0.417314 5.54305e-10 1.61307e-10 -2.96136e-10 2.90554 0.965183 0.102902 5.54307e-10 1.61307e-10 -2.96139e-10 10.2786 0.731801 0.0259123 5.54297e-10 1.61311e-10 -2.96131e-10 2.22167 -0.733487 -0.20892 -2.71051e-14 -4.18206e-13 -5.80436e-15 -21.4104 13.2402 -0.220388 5.40333 -2.74816 -8.09698 -0.10912 -7.34016 1.0013 -2.71296e-11 -8.33826e-11 4.55204e-10 -5.45858e-11 -1.42949e-10 7.86687e-10 -2.71325e-11 -8.33833e-11 4.55212e-10 -7.73091 5.47488 -0.417314 -2.71278e-11 -8.33837e-11 4.55204e-10 -2.90554 0.965183 -0.102902 -2.71342e-11 -8.33829e-11 4.55204e-10 -10.2786 0.731801 -0.0259123 -2.71208e-11 -8.33774e-11 4.55198e-10 -2.22167 -0.733487 0.20892 -2.03217e-16 0.0 -3.88251e-19 1.64329 -6.15901 1.49742 0.024211 6.46431 0.0798722 -0.979214 0.0581242 -8.26165 2.03217e-16 0.0 3.88251e-19 0.950117 -7.63961 -0.440243 -0.0137287 7.23907 -0.0967343 0.855813 -0.849241 3.56086
-105.535 83.4059 -17.1814 -136.832 84.3156 -130.964 1.00173 1.22727 1.20697 0.91658 -2.30806 0.414188 1.09298 -2.44716 1.13911 1.1265 2.71899 2.10674 -0.0 0.0 0.0 -0.0 0.0 0.0 -5.4992e-14 -8.78453e-13 -1.24644e-14 42.2184 20.7858 -0.561501 -9.30531 -4.68026 15.2673 -0.00141776 -1.56414 -0.21984 1.19973e-09 3.46667e-10 -6.37688e-10 2.07336e-09 5.99427e-10 -1.1034e-09 1.19973e-09 3.46663e-10 -6.37694e-10 7.73091 5.47488 0.417314 1.19973e-09 3.46663e-10 -6.37684e-10 2.90554 0.965183 0.102902 1.19973e-09 3.46663e-10 -6.37685e-10 10.2786 0.731801 0.0259123 1.19972e-09 3.46666e-10 -6.37677e-10 2.22167 -0.733487 -0.20892 -5.51943e-14 -8.78452e-13 -1.27781e-14 -43.9149 27.2506 -0.495494 10.2793 -5.4702 -16.7154 0.0636836 -15.1093 2.11834 -4.2211e-11 -1.8391e-10 9.74849e-10 -8.93713e-11 -3.15412e-10 1.68471e-09 -4.22136e-11 -1.83909e-10 9.74862e-10 -7.73091 5.47488 -0.417314 -4.22103e-11 -1.83911e-10 9.7485e-10 -2.90554 0.965183 -0.102902 -4.22169e-11 -1.8391e-10 9.74851e-10 -10.2786 0.731801 -0.0259123 -4.22016e-11 -1.83906e-10 9.74844e-10 -2.22167 -0.733487 0.20892 -2.03217e-16 0.0 -3.88251e-19 2.79519 -8.58567 3.16419 0.0324831 11.7827 0.196259 -2.26995 -2.31796 -17.1194 2.03217e-16 0.0 3.88251e-19 2.09889 -12.8321 -0.935104 0.0122851 15.5401 -0.268432 1.87214 -5.22517 7.49584
-105.61 83.4003 -17.0275 -139.077 84.5753 -133.195 1.33207 1.79778 1.75191 1.30976 -3.36578 0.597093 1.60097 -3.577 1.65274 1.58908 3.98113 3.06449 -0.0 0.0 0.0 -0.0 0.0 0.0 -7.78338e-14 -1.25463e-12 -1.68489e-14 61.7215 30.2576 -0.896851 -12.7378 -6.53954 22.3244 -0.00554541 -2.21917 -0.312025 1.69193e-09 4.83787e-10 -8.88063e-10 2.92404e-09 8.36541e-10 -1.53661e-09 1.69193e-09 4.83782e-10 -8.88068e-10 7.73091 5.47488 0.417314 1.69193e-09 4.83782e-10 -8.88058e-10 2.90554 0.965183 0.102902 1.69193e-09 4.83781e-10 -8.88059e-10 10.2786 0.731801 0.0259123 1.69192e-09 4.83783e-10 -8.8805e-10 2.22167 -0.733487 -0.20892 -7.80379e-14 -1.25462e-12 -1.72143e-14 -63.8479 39.718 -0.836714 13.9404 -7.58727 -24.4911 0.49325 -21.9925 3.21332 -5.23813e-11 -2.50293e-10 1.36597e-09 -1.13685e-10 -4.29096e-10 2.36068e-09 -5.23836e-11 -2.50291e-10 1.36599e-09 -7.73091 5.47488 -0.417314 -5.23814e-11 -2.50295e-10 1.36597e-09 -2.90554 0.965183 -0.102902 -5.23882e-11 -2.50293e-10 1.36597e-09 -10.2786 0.731801 -0.0259123 -5.23714e-11 -2.5029e-10 1.36596e-09 -2.22167 -0.733487 0.20892 -2.03217e-16 0.0 -3.88251e-19 3.97225 -10.7314 4.66228 0.0209507 16.5169 0.305565 -4.03533 -4.22842 -25.0583 2.03217e-16 0.0 3.88251e-19 3.06765 -17.466 -1.43499 0.0812424 22.95 -0.438541 3.28754 -9.06665 11.0568
-105.697 83.3915 -16.8623 -142.236 84.757 -136.294 1.62326 2.22105 2.11395 1.58143 -4.11067 0.7204 1.87386 -4.3968 1.97481 1.93443 4.92783 3.69192 -0.0 0.0 0.0 -0.0 0.0 0.0 -8.7566e-14 -1.42062e-12 -1.49089e-14 75.3871 36.6641 -1.22401 -14.8192 -7.63475 27.2173 -0.0073722 -2.4508 -0.34465 1.80104e-09 5.00311e-10 -9.10504e-10 3.11291e-09 8.65181e-10 -1.57541e-09 1.80104e-09 5.00308e-10 -9.1051e-10 7.73091 5.47488 0.417314 1.80104e-09 5.00306e-10 -9.10501e-10 2.90554 0.965183 0.102902 1.80105e-09 5.00305e-10 -9.105e-10 10.2786 0.731801 0.0259123 1.80104e-09 5.00305e-10 -9.10491e-10 2.22167 -0.733487 -0.20892 -8.77679e-14 -1.42061e-12 -1.53064e-14 -77.6358 48.3303 -1.18754 16.1403 -8.81817 -29.9692 0.961325 -26.688 4.05119 -5.02734e-11 -2.31319e-10 1.43577e-09 -1.1182e-10 -3.95836e-10 2.48154e-09 -5.02758e-11 -2.31315e-10 1.43579e-09 -7.73091 5.47488 -0.417314 -5.0274e-11 -2.31321e-10 1.43577e-09 -2.90554 0.965183 -0.102902 -5.02809e-11 -2.31318e-10 1.43578e-09 -10.2786 0.731801 -0.0259123 -5.02639e-11 -2.31317e-10 1.43577e-09 -2.22167 -0.733487 0.20892 -2.03217e-16 0.0 -3.88251e-19 4.93908 -12.2006 5.69124 0.0018819 19.7906 0.386822 -5.60806 -5.42601 -30.6105 2.03217e-16 0.0 3.88251e-19 3.75191 -20.7068 -1.90298 0.159322 28.1323 -0.573134 4.55363 -11.7406 13.5284
-105.735 83.401 -16.5786 -142.575 84.7098 -136.744 1.87523 2.45216 2.2165 1.68418 -4.41879 0.759336 1.78239 -4.78816 2.02203 2.17683 5.44539 3.84686 -0.0 0.0 0.0 -0.0 0.0 0.0 -8.10318e-14 -1.34877e-12 -4.03976e-15 80.7346 38.7617 -1.43987 -15.5165 -7.96653 29.0082 -0.00370037 -2.03224 -0.285701 1.24422e-09 2.80049e-10 -4.38432e-10 2.1517e-09 4.8457e-10 -7.58576e-10 1.24422e-09 2.80049e-10 -4.38443e-10 7.73091 5.47488 0.417314 1.24422e-09 2.80045e-10 -4.38433e-10 2.90554 0.965183 0.102902 1.24422e-09 2.80044e-10 -4.3843e-10 10.2786 0.731801 0.0259123 1.24421e-09 2.80044e-10 -4.38421e-10 2.22167 -0.733487 -0.20892 -8.12214e-14 -1.34877e-12 -4.44354e-15 -83.0408 51.5299 -1.38808 16.9333 -9.23851 -32.135 1.16775 -28.3128 4.36596 3.25376e-11 -3.68879e-11 8.64172e-10 3.89664e-11 -6.01237e-11 1.49547e-09 3.2535e-11 -3.6884e-11 8.64189e-10 -7.73091 5.47488 -0.417314 3.25375e-11 -3.68901e-11 8.64168e-10 -2.90554 0.965183 -0.102902 3.25305e-11 -3.68877e-11 8.64176e-10 -10.2786 0.731801 -0.0259123 3.25455e-11 -3.68865e-11 8.64169e-10 -2.22167 -0.733487 0.20892 -2.03217e-16 0.0 -3.88251e-19 5.50553 -12.7198 6.05275 -0.00746236 21.0079 0.421416 -6.36202 -5.97651 -32.7751 2.03217e-16 0.0 3.88251e-19 4.12769 -21.9823 -2.31223 0.198091 30.1849 -0.631292 5.08896 -12.8892 14.3524
-105.773 83.4145 -16.2447 -141.218 84.547 -135.527 2.10192 2.54551 2.13369 1.66425 -4.41492 0.737849 1.42627 -4.87349 1.87258 2.35655 5.65697 3.66316 -0.0 0.0 0.0 -0.0 0.0 0.0 -6.27794e-14 -1.10436e-12 1.32037e-14 80.0891 37.7835 -1.53938 -15.3277 -7.83506 28.5677 0.000991838 -1.15197 -0.16187 2.17889e-10 -1.06111e-10 3.7851e-10 3.79641e-10 -1.82774e-10 6.54971e-10 2.17901e-10 -1.06106e-10 3.78491e-10 7.73091 5.47488 0.417314 2.1789e-10 -1.06111e-10 3.78504e-10 2.90554 0.965183 0.102902 2.17891e-10 -1.06113e-10 3.78509e-10 10.2786 0.731801 0.0259123 2.17883e-10 -1.06112e-10 3.78518e-10 2.22167 -0.733487 -0.20892 -6.29498e-14 -1.10436e-12 1.28123e-14 -82.5466 50.8652 -1.40345 16.8551 -9.20134 -31.9121 1.10947 -27.7518 4.26062 1.69969e-10 2.80204e-10 -1.56453e-10 2.9078e-10 4.87019e-10 -2.65554e-10 1.69966e-10 2.80208e-10 -1.56439e-10 -7.73091 5.47488 -0.417314 1.6997e-10 2.80202e-10 -1.56462e-10 -2.90554 0.965183 -0.102902 1.69963e-10 2.80204e-10 -1.5645e-10 -10.2786 0.731801 -0.0259123 1.69975e-10 2.80205e-10 -1.56455e-10 -2.22167 -0.733487 0.20892 -2.03217e-16 0.0 -3.88251e-19 5.75821 -12.5657 5.92934 -0.00481611 20.7569 0.420411 -6.40343 -6.16727 -32.5033 2.03217e-16 0.0 3.88251e-19 4.31309 -21.8555 -2.66526 0.194436 30.0028 -0.626059 4.98033 -12.9858 13.9619
-105.844 83.419 -15.9372 -140.67 84.4151 -135.011 2.31221 2.56218 1.98137 1.58186 -4.28447 0.692732 0.985537 -4.82877 1.65208 2.4866 5.73159 3.35297 -0.0 0.0 0.0 -0.0 0.0 0.0 -3.65003e-14 -7.00647e-13 3.28775e-14 77.0461 35.6059 -1.60187 -14.7759 -7.51216 27.2352 0.00178322 -0.178926 -0.0251222 -7.88823e-10 -4.49906e-10 1.05275e-09 -1.35905e-09 -7.76989e-10 1.8217e-09 -7.88806e-10 -4.49896e-10 1.05273e-09 7.73091 5.47488 0.417314 -7.88823e-10 -4.49902e-10 1.05274e-09 2.90554 0.965183 0.102902 -7.88824e-10 -4.49905e-10 1.05275e-09 10.2786 0.731801 0.0259123 -7.88829e-10 -4.49903e-10 1.05276e-09 2.22167 -0.733487 -0.20892 -3.66556e-14 -7.00646e-13 3.25079e-14 -79.7015 48.6839 -1.3242 16.4242 -8.97703 -30.7235 0.956851 -26.3614 4.00032 2.27627e-10 5.56833e-10 -1.05018e-09 4.03369e-10 9.63968e-10 -1.80893e-09 2.27623e-10 5.56837e-10 -1.05018e-09 -7.73091 5.47488 -0.417314 2.27629e-10 5.56832e-10 -1.0502e-09 -2.90554 0.965183 -0.102902 2.27622e-10 5.56834e-10 -1.05018e-09 -10.2786 0.731801 -0.0259123 2.2763e-10 5.56834e-10 -1.05019e-09 -2.22167 -0.733487 0.20892 -2.03217e-16 0.0 -3.88251e-19 5.86106 -12.1725 5.58404 0.00248183 19.938 0.404983 -6.12995 -6.19607 -31.2326 2.03217e-16 0.0 3.88251e-19 4.4222 -21.1961 -2.96262 0.173838 28.9454 -0.596003 4.62096 -12.6882 13.0847
